<?xml version="1.0" encoding="utf-8"?>
<!-- Uploaded to: SVG Repo, www.svgrepo.com, Generator: SVG Repo Mixer Tools -->
<svg width="800px" height="800px" viewBox="0 0 1024 1024" class="icon"  version="1.1" xmlns="http://www.w3.org/2000/svg"><path d="M634 412.8v151.7c0 4.4-3.6 7.9-7.9 7.9H524.2V412.8H634zM455 412.8v159.7H350.1c-4.4 0-7.9-3.6-7.9-7.9V412.8H455zM511.6 400.2V572.5h-44v-252c3.6-0.1 7.3-0.3 11-0.5h2.7c9.6 0.6 18.7 0.8 27.3 0.8h3.1v79.4zM661 330.6v59c0 5.9-4.8 10.6-10.6 10.6H524.2v-79.7c3-0.1 5.9-0.3 8.7-0.5h117.6c5.8 0 10.5 4.8 10.5 10.6zM455 320.8v79.4H322.4c-5.9 0-10.6-4.8-10.6-10.6v-59c0-5.9 4.8-10.6 10.6-10.6h104.5c7.6 0.6 15.7 0.9 24.4 0.9 1.2 0 2.4-0.1 3.7-0.1z" fill="#FFABAF" /><path d="M868.7 456.5v377.2c0 39.9-32.5 72.4-72.4 72.4h-646c-36.4 0-66.1-29.6-66.1-66.1V464.8l125.9-112.6v16.9L96.8 470.4v369.5c0 29.5 24 53.5 53.5 53.5h646c33 0 59.8-26.8 59.8-59.8V462l-98.6-89.8v-16.4l0.3-0.3 110.9 101z" fill="#EF4668" /><path d="M856.1 462v371.6c0 33-26.8 59.8-59.8 59.8h-646c-29.5 0-53.5-24-53.5-53.5V470.4l113.3-101.3V551l-54.4-52.2-8.7 9.1 71.1 68.3 72.3 69.5L146.7 801l9.2 8.5 143.5-155.3 63.3 60.8h229.4l71.8-64.2 146.7 158.7 9.2-8.5-146.5-158.5 138.8-124.1-8.4-9.4-46.2 41.3V372.2l98.6 89.8z" fill="#FFE085" /><path d="M673.3 642.5L819.8 801l-9.2 8.6-146.7-158.7z" fill="#EF4668" /><path d="M803.7 509.1l8.4 9.4-138.8 124-1.3-1.5-9.2 8.5 1.2 1.3-71.8 64.2H362.8l-63.3-60.8 4.4-4.7-9.3-8.5-4.2 4.5-72.3-69.5 1.9-1.9 2.7 2.5v-13.7l145.2 139.5h219.5L745 561.5v12.3c4-2.9 7.1-6.7 9.3-11 1.9-3.8 3.1-8.1 3.3-12.5l46.1-41.2z" fill="#EF4668" /><path d="M757.5 372.2v178.2L745 561.6v-390c0-17.2-14-31.2-31.2-31.2H253.9c-17.2 0-31.2 14-31.2 31.2v391.5L210.1 551V369.1l8.9-8-8.4-9.4-0.5 0.5V159c0-17.2 14-31.2 31.2-31.2h485c17.2 0 31.2 14 31.2 31.2v196.8l-8.2 9 8.2 7.4z" fill="#EF4668" /><path d="M757.5 355.8v16.4l-8.2-7.4zM744.9 561.6l12.5-11.2c-0.2 4.4-1.4 8.6-3.3 12.5-2.2 4.3-5.3 8.1-9.3 11v-12.3z" fill="#EF4668" /><path d="M744.9 171.6v390L587.3 702.5H367.8L222.6 563.1V171.6c0-17.2 14-31.2 31.2-31.2h459.9c17.3 0 31.2 14 31.2 31.2z m-71.3 218v-59c0-12.8-10.4-23.2-23.2-23.2h-64.6c8.9-4.7 15.4-10.6 19.4-17.7 12.4-22-3.7-45.9-4.7-47.4-11.3-13.6-24.3-19.7-38.7-18-36.6 4.1-70.6 59.1-81.9 79.3-11.3-20.2-45.3-75.2-81.9-79.3-14.4-1.6-27.4 4.4-39.1 18.5-0.7 1-16.8 24.9-4.3 46.9 4 7.1 10.5 13 19.4 17.7h-51.6c-12.8 0-23.2 10.4-23.2 23.2v59c0 12.8 10.4 23.2 23.2 23.2h7.2v151.7c0 11.3 9.2 20.5 20.5 20.5H626c11.3 0 20.5-9.2 20.5-20.5V412.8h3.8c12.9 0 23.3-10.4 23.3-23.2z" fill="#FFF0C2" /><path d="M673.6 330.6v59c0 12.8-10.4 23.2-23.2 23.2h-3.8v-3.7H634v3.7H524.2v-12.6h126.2c5.9 0 10.6-4.8 10.6-10.6v-59c0-5.9-4.8-10.6-10.6-10.6H532.9c22.5-1.7 40.2-5.9 52.9-12.6h64.6c12.8 0 23.2 10.4 23.2 23.2zM672 641.1l1.3 1.4-9.4 8.4-1.2-1.3zM646.6 412.8v151.7c0 11.3-9.2 20.5-20.5 20.5h-276c-11.3 0-20.5-9.2-20.5-20.5V412.8h12.6v151.7c0 4.4 3.6 7.9 7.9 7.9H455v6.3h12.6v-6.3h44v6.3h12.6v-6.3h101.9c4.4 0 7.9-3.6 7.9-7.9V412.8h12.6z" fill="#EF4668" /><path d="M634 409.1h12.6v3.7H634zM600.5 242.3c1 1.5 17.1 25.4 4.7 47.4-4 7.1-10.5 13-19.4 17.7h-52.7c39.8-3.1 55.5-13.9 61.1-23.8 8.6-15.1-3.6-33.5-3.7-33.7-8.2-9.8-17.3-14.3-27.3-13.1-27.2 3.1-57 46-71 70.6H482c-0.6-1.1-1.3-2.4-2.1-3.8 11.3-20.2 45.3-75.2 81.9-79.3 14.4-1.7 27.4 4.4 38.7 18z" fill="#EF4668" /><path d="M590.5 249.9c0.1 0.2 12.3 18.6 3.7 33.7-5.6 9.9-21.3 20.8-61.1 23.8h-40.9c14.1-24.7 43.9-67.6 71-70.6 10-1.2 19.1 3.3 27.3 13.1z" fill="#FFABAF" /><path d="M533.1 307.4h52.7c-12.7 6.7-30.4 10.9-52.9 12.6h-8.7v-7.1h-12.6v7.1H481l-1.1-0.1 8.3-0.5-4.3-8.6c-0.2-0.4-0.8-1.6-1.8-3.5h10.2c-0.1 0.2-0.2 0.3-0.3 0.5 15.9 0.8 29.5 0.5 41.1-0.4z" fill="#EF4668" /><path d="M492.2 307.4h40.9c-11.6 0.9-25.2 1.1-41.2 0.5 0.1-0.1 0.2-0.3 0.3-0.5zM524.2 320h8.7c-2.8 0.2-5.7 0.4-8.7 0.5v-0.5zM511.6 572.5h12.6v6.3h-12.6zM511.6 412.8h12.6v159.7h-12.6zM511.6 400.2h12.6v12.6h-12.6zM524.2 320.5v79.7h-12.6v-79.4c4.3 0 8.5-0.1 12.6-0.3z" fill="#EF4668" /><path d="M524.2 320v0.5c-4 0.2-8.3 0.3-12.6 0.3v-0.8h12.6zM511.6 312.9h12.6v7.1h-12.6zM511.6 320v0.8h-3.1c-8.6 0-17.6-0.3-27.3-0.8h-0.2 30.6zM483.8 310.9l4.3 8.6-8.3 0.5-8.3-0.5 4.3-8.6c0.2-0.4 0.8-1.6 1.8-3.5h4.2c1.2 1.9 1.8 3.1 2 3.5zM482 307.4h-4.2c0.6-1.1 1.3-2.4 2.1-3.8 0.8 1.5 1.5 2.8 2.1 3.8z" fill="#EF4668" /><path d="M481 320h-2.3l1.2-0.1z" fill="#EF4668" /><path d="M479.9 319.9l-1.2 0.1h-11.2v-7.1H455v7.1h-28c-22.5-1.7-40.2-5.9-52.9-12.6h52.3c11.7 0.9 25.4 1.2 41.7 0.5-0.1-0.2-0.2-0.3-0.3-0.5H478c-1 1.9-1.6 3.1-1.8 3.5l-4.3 8.6 8 0.4zM478.7 320h-0.2c-3.8 0.2-7.4 0.4-11 0.5v-0.5h11.2z" fill="#EF4668" /><path d="M479.9 303.6c-0.8 1.5-1.5 2.8-2.1 3.8h-10.2c-14.1-24.7-43.9-67.6-71.1-70.6-10-1.1-19.1 3.3-27.6 13.6 0 0-11.9 18.2-3.4 33.2 5.6 9.9 21.1 20.7 60.7 23.8H374c-8.9-4.7-15.4-10.6-19.4-17.7-12.4-22 3.7-45.9 4.3-46.9 11.6-14.1 24.7-20.1 39.1-18.5 36.6 4.1 70.6 59.1 81.9 79.3z" fill="#EF4668" /><path d="M467.6 307.4c0.1 0.2 0.2 0.3 0.3 0.5-16.2 0.6-30 0.4-41.7-0.5h41.4z" fill="#EF4668" /><path d="M467.6 307.4h-41.4c-39.6-3.1-55-13.9-60.7-23.8-8.5-15 3.4-33.2 3.4-33.2 8.5-10.3 17.6-14.7 27.6-13.6 27.2 3 57 45.9 71.1 70.6z" fill="#FFABAF" /><path d="M455 572.5h12.6v6.3H455zM467.5 320.5v251.9H455V412.8h6.3v-12.6H455v-79.4c4 0 8.2-0.1 12.5-0.3z" fill="#EF4668" /><path d="M467.5 320v0.5c-4.3 0.2-8.5 0.3-12.6 0.3v-0.8h12.6zM455 312.9h12.6v7.1H455zM455 400.2h6.3v12.6H455z" fill="#EF4668" /><path d="M455 400.2v12.6H342.2v-3.7h-12.6v3.7h-7.2c-12.8 0-23.2-10.4-23.2-23.2v-59c0-12.8 10.4-23.2 23.2-23.2H374c12.7 6.7 30.4 10.9 52.9 12.6H322.4c-5.9 0-10.6 4.8-10.6 10.6v59c0 5.9 4.8 10.6 10.6 10.6H455zM455 320v0.8h-3.7c-8.7 0-16.8-0.3-24.4-0.9H455z" fill="#EF4668" /><path d="M329.6 409.1h12.6v3.7h-12.6zM303.8 649.6l-4.3 4.7-9.1-8.7 4.2-4.5z" fill="#EF4668" /><path d="M299.5 654.3L156 809.6l-9.3-8.6 143.7-155.4zM222.6 563.1v13.7l-2.7-2.5c-6.3-5.9-9.9-14.1-9.9-22.8v-0.5l12.6 12.1z" fill="#EF4668" /><path d="M220 574.2l-1.9 1.9-71.1-68.3 8.7-9.1 54.4 52.2v0.5c0 8.7 3.5 16.9 9.9 22.8zM210.6 351.8l8.4 9.3-8.9 8v-16.9z" fill="#EF4668" /></svg>